{"title":"The To Do List 2013 BRRip 720p x264 AAC - PRiSTiNE [P2PDL]","uid":9138181,"size":698333919,"categoryP":"video","categoryS":"hd___movies","magnet":"?xt=urn:btih:81d756ad383954f0595ae44e37967cfd40cf5e10&amp;dn=The+To+Do+List+2013+BRRip+720p+x264+AAC+-+PRiSTiNE+%5BP2PDL%5D&amp;tr=udp%3A%2F%2Ftracker.openbittorrent.com%3A80&amp;tr=udp%3A%2F%2Fopen.demonii.com%3A1337&amp;tr=udp%3A%2F%2Ftracker.coppersurfer.tk%3A6969&amp;tr=udp%3A%2F%2Fexodus.desync.com%3A6969","seeders":1,"leechers":1,"uploader":"ValidusVyto","files":-1,"time":1383457555,"description":"_______ Visit us at our Semi Public Bittorrent Community ________\n  &lt;a href=&quot;\nhttp://p2pdl.com&quot; rel=&quot;nofollow&quot; target=&quot;_NEW&quot;&gt;\nhttp://p2pdl.com&lt;/a&gt;  _____________________________ &lt;a href=&quot; http://p2pdl.com&quot; rel=&quot;nofollow&quot; target=&quot;_NEW&quot;&gt; http://p2pdl.com&lt;/a&gt;\n\n\n\nThe To Do List 2013 BRRip 720p x264 AAC - PRiSTiNE\n\n\nGenre: Comedy \nPlot: Feeling pressured to become more sexually experienced before she goes to college,\nBrandy Klark makes a list of things to accomplish before hitting campus in the fall. \nDirector: KlayMaggie Carey\nStars: Aubrey Plaza, Johnny Simmons, Bill Hader.\nRated: R for pervasive strong crude and sexual content including graphic dialogue, drug\nand alcohol use, and language - all involving teens.\n\nIMDb: &lt;a href=&quot;\nhttp://www.imdb.com/title/tt1758795/&quot; rel=&quot;nofollow&quot; target=&quot;_NEW&quot;&gt;\nhttp://www.imdb.com/title/tt1758795/&lt;/a&gt;\n\n\nFormat                         : MPEG-4\nFile size                      : 651 MiB\nDuration                       : 1h 43mn\nOverall bit rate               : 876 Kbps\n\nVideo\nFormat                         : AVC\nBit rate                       : 794 Kbps\nWidth                          : 1 280 pixels\nHeight                         : 720 pixels\nDisplay aspect ratio           : 16:9\nFrame rate mode                : Constant\nFrame rate                     : 23.976 fps\nColor space                    : YUV\nBit depth                      : 10 bits\nStream size                    : 590 MiB (91%)\nWriting library                : x264 core 138 r2358\n\nAudio\nFormat                         : AAC\nBit rate mode                  : Variable\nBit rate                       : 79.8 Kbps\nChannel count                  : 2 channels\nChannel positions              : Front: L R\nSampling rate                  : 48.0 KHz\nStream size                    : 59.3 MiB (9%)\nLanguage                       : English\n\nSubtitle                       : Yes (English)\n\nSource                         : 720p.BluRay.x264-ALLiANCE\n &lt;a href=&quot;\nhttp://someimage.com/IMODwzF&quot; rel=&quot;nofollow&quot; target=&quot;_NEW&quot;&gt;\nhttp://someimage.com/IMODwzF&lt;/a&gt; &lt;a href=&quot;\nhttp://someimage.com/vR8hARc&quot; rel=&quot;nofollow&quot; target=&quot;_NEW&quot;&gt;\nhttp://someimage.com/vR8hARc&lt;/a&gt; &lt;a href=&quot;\nhttp://someimage.com/T7dkWig&quot; rel=&quot;nofollow&quot; target=&quot;_NEW&quot;&gt;\nhttp://someimage.com/T7dkWig&lt;/a&gt; &lt;a href=&quot;\nhttp://someimage.com/VGAMJ2R&quot; rel=&quot;nofollow&quot; target=&quot;_NEW&quot;&gt;\nhttp://someimage.com/VGAMJ2R&lt;/a&gt; &lt;a href=&quot;\nhttp://someimage.com/JlWiYAL&quot; rel=&quot;nofollow&quot; target=&quot;_NEW&quot;&gt;\nhttp://someimage.com/JlWiYAL&lt;/a&gt; &lt;a href=&quot;\nhttp://someimage.com/kZhGHfN&quot; rel=&quot;nofollow&quot; target=&quot;_NEW&quot;&gt;\nhttp://someimage.com/kZhGHfN&lt;/a&gt; &lt;a href=&quot;\nhttp://someimage.com/7XQQVT0&quot; rel=&quot;nofollow&quot; target=&quot;_NEW&quot;&gt;\nhttp://someimage.com/7XQQVT0&lt;/a&gt; &lt;a href=&quot;\nhttp://someimage.com/H26syx5&quot; rel=&quot;nofollow&quot; target=&quot;_NEW&quot;&gt;\nhttp://someimage.com/H26syx5&lt;/a&gt;\n\n----------------------------------------------------------------------------------------------------\n\n\nEncoded using revolutionary 10bit encoding, which enables us to provide you more crispier \nand sharper images at small sizes, just make sure you follow our instructions without a fault.\nRecommend to you to use latest version of VLC player. Install K-Lite Codec Pack or shark007 codecs\nin case of any kind of problem in playback (For non-VLC Media Player users). Alternatively, install\nCore AVC codecs, the fastest decoder that there is coupled with Community Center Codec Pack and play\non Windows Media Player Classic. Check sample to be sure.\nEnjoy!\n\nEncoder Notes:Looking For Early Access To Anything You Can Provide DVDScr, R5, DVDR, BluRay, Direct\nAudio, Music Releases and Seedboxes. We require dedicated servers, so as to do more \nand fast releases of movies.\n\nFor more of our team uploads visit @                                             &lt;a href=&quot; http://thepiratebay.se/user/vitamin_x&quot; rel=&quot;nofollow&quot; target=&quot;_NEW&quot;&gt; http://thepiratebay.se/user/vitamin_x&lt;/a&gt;\t","torrent":{"xt":"urn:btih:81d756ad383954f0595ae44e37967cfd40cf5e10","amp;dn":"The+To+Do+List+2013+BRRip+720p+x264+AAC+-+PRiSTiNE+%5BP2PDL%5D","amp;tr":["udp%3A%2F%2Ftracker.openbittorrent.com%3A80","udp%3A%2F%2Fopen.demonii.com%3A1337","udp%3A%2F%2Ftracker.coppersurfer.tk%3A6969","udp%3A%2F%2Fexodus.desync.com%3A6969"],"infoHash":"81d756ad383954f0595ae44e37967cfd40cf5e10","infoHashBuffer":{"type":"Buffer","data":[129,215,86,173,56,57,84,240,89,90,228,78,55,150,124,253,64,207,94,16]},"announce":[],"urlList":[]}}